PathFileType	4	(X/Y/Z)	OpenSim_Sub02_EMGStiffKnee_Accel.trc
DataRate	CameraRate	NumFrames	NumMarkers	Units	OrigDataRate	OrigDataStartFrame	OrigNumFrames
100	100	30	8	m	100	2959	7890
Frame#	Time	torso_imu_offset_imu	pelvis_imu_offset_imu	tibia_r_imu_offset_imu	femur_r_imu_offset_imu	tibia_l_imu_offset_imu	femur_l_imu_offset_imu	toes_r_imu_offset_imu	toes_l_imu_offset_imu
				X1	Y1	Z1	X2	Y2	Z2	X3	Y3	Z3	X4	Y4	Z4	X5	Y5	Z5	X6	Y6	Z6	X7	Y7	Z7	X8		Y8	Z8	

2959	29.58000000	9.53431901	-0.96336908	6.85154071	9.59099061	1.39172052	2.97168101	12.12832415	-0.59985750	2.00702951	9.86053510	-4.34911786	0.92676752	9.64352728	-14.64384417	-2.08014395	9.50559870	-1.36067507	-0.62705889	4.58150990	-0.55411941	9.80844509	2.24100860	0.56531906	13.85602058
2960	29.59000000	9.41999566	-0.80534301	6.96460227	9.84563786	1.36363882	3.24101045	12.73232707	-0.42248736	2.43716930	10.17124683	-4.29987151	0.80738475	7.68176610	-9.54723698	1.43381760	10.25196239	-2.71171694	-0.67927955	4.58589464	-0.03775406	10.13165181	6.42474615	2.89345944	11.93425189
2961	29.60000000	9.03733943	-0.91354202	7.11642115	9.97069102	1.18388163	3.42631786	13.49646233	-0.36558154	2.72215480	10.14496343	-4.13237627	0.81015757	6.70831933	-6.60865993	4.52742400	11.00015823	-4.13451096	-1.45847719	4.07248729	-0.05251106	10.88823614	3.41870185	1.49269434	12.69204703
2962	29.61000000	8.89770237	-0.79217855	7.34289404	10.13084828	0.97067944	3.69535516	14.86062575	-0.89651354	2.71259492	10.18409711	-4.03963377	0.95279652	7.60037453	-6.36817540	1.34538416	10.86979012	-4.84651657	-2.72908839	3.92185978	-0.59198774	11.24849284	2.44566902	-1.11252396	11.71383203
2963	29.62000000	9.02540372	-0.47582165	7.42396905	10.06331217	0.43619459	4.04464412	16.32309793	-2.07529589	1.98532852	10.21916680	-3.96085301	1.32421668	10.73857914	-4.23303618	0.46525932	10.58818559	-4.37680313	-3.13092660	4.13629122	0.16666609	11.50367281	5.05014979	0.66771347	12.65417414
2964	29.63000000	9.00336068	-0.17284998	7.43539647	9.67803961	-0.25467607	4.17713904	16.63535198	-3.33545222	1.36310613	10.14529333	-3.71249103	1.96822221	13.33350039	-0.59986244	3.95104339	10.78335273	-3.28870584	-2.24185982	3.42172673	-0.53774201	11.69269654	4.76726677	-0.99328202	11.87072527
2965	29.64000000	8.68036832	0.07547547	7.46189487	9.21010102	-0.90795440	4.22269885	15.54606546	-3.50427227	2.47470337	9.84808899	-3.39443697	2.31786073	13.55403082	2.22130640	4.37088673	10.69984018	-2.44019084	-1.26843281	3.29778020	-2.72626898	11.05820327	4.07264906	-0.40469316	11.98799505
2966	29.65000000	8.23127701	0.23729900	7.46862817	8.85736432	-1.35031933	4.30538322	13.82804762	-1.85402191	3.42957244	9.59003098	-3.14461677	2.43537399	9.72458988	2.12724213	1.85849516	10.02150832	-1.92307190	-0.94377473	4.16679143	-2.27691873	10.43085990	4.17862922	0.81742330	12.09390102
2967	29.66000000	7.81946299	0.36331009	7.20031510	8.55069976	-1.62495643	4.21374441	12.34272687	0.49666354	3.12065493	9.96032570	-2.66752063	2.61158654	6.95042223	0.35016263	2.04974808	9.26777905	-1.58598702	-0.79028652	6.08682662	-2.32382951	10.14320778	4.20823507	0.60568844	11.68147911
2968	29.67000000	7.49269671	0.54700006	6.87263619	8.35705797	-1.76363539	3.95276822	10.79838361	2.72357083	2.40400089	10.71703532	-1.44045943	2.80314093	7.09359661	-1.21723148	1.89891792	8.66958914	-1.59179179	-0.81404903	8.93391849	-2.74066917	9.95732954	4.25934229	1.18497646	11.66998468
2969	29.68000000	7.43788697	0.79479202	6.88379238	8.39714390	-1.57395765	3.62007762	9.26063724	4.54936574	1.86944687	11.38486142	0.45386807	3.04618047	8.51856434	-1.71081577	0.01270617	8.34185566	-1.66922686	-1.58495490	10.47920697	-1.43370301	9.28988612	4.41049690	1.18315793	11.59748622
2970	29.69000000	7.55803564	0.96372731	6.69105565	8.61406666	-1.19689847	3.25418510	8.00523098	6.24074622	2.21939192	11.80854172	2.23132824	3.16787130	9.96890692	-2.19964668	-0.74833826	8.35250744	-1.53462503	-2.61688933	14.11855292	0.90972163	9.48221686	4.19145020	1.46699676	11.71622583
2971	29.70000000	7.85793227	1.07863783	6.60806541	9.03138669	-0.75750360	2.97491996	6.65618876	8.23429015	2.53184930	11.86989840	3.28849594	3.03150813	10.32201866	-3.32099303	-0.64126989	8.68576413	-1.35295909	-3.35703991	16.69772200	2.48944915	10.39123874	3.57239632	1.56052877	11.91321552
2972	29.71000000	8.46295974	1.12205520	6.94571290	9.60392826	-0.30963045	2.88489870	5.14582399	10.36779119	1.79979634	11.72286420	3.49480151	2.60680249	10.13089426	-4.10648116	-0.44314552	9.29423903	-1.26787174	-3.64586291	13.06997397	4.28432004	19.32416321	4.02797111	0.98999366	11.92402595
2973	29.72000000	9.15908941	1.01729437	7.21735817	10.35923793	-0.06957728	2.87080973	3.82137673	12.28545001	0.51272076	11.50601560	2.76144093	2.10269953	10.31859930	-4.12264419	-0.21772553	9.65737971	-1.18105765	-3.58322248	1.77293011	1.76698251	24.36045775	4.15401782	0.72587081	11.83281860
2974	29.73000000	9.69218250	0.81199793	7.49435848	11.08920003	0.04808913	2.89351876	3.50435274	12.98835940	-0.15342921	11.42526876	0.92590141	1.62708850	10.97201492	-2.92453080	-0.14537694	9.65417551	-0.83186394	-3.31395434	-4.13200422	-3.36128969	18.46073729	3.95808899	0.78714082	11.83658305
2975	29.74000000	10.03905203	0.65428288	7.73906397	11.64991744	0.13381693	2.91780652	4.00991221	11.84771979	1.45606462	11.64878052	-1.51147002	1.38836779	11.33126340	-1.16993815	0.18005200	9.73216755	-0.11317104	-2.86832407	0.65126306	-4.22957185	18.73736759	3.43118279	0.90824671	12.07606222
2976	29.75000000	10.12658838	0.55334995	7.93520072	11.68736279	0.03420587	3.00530365	4.16809652	10.53290705	3.75098918	11.80671876	-3.29226473	1.63713525	10.80399056	-0.41742128	0.51979139	9.93300260	0.57467589	-2.66177231	-3.53881309	-7.68601320	14.63473856	3.67187845	0.81440934	12.03346884
2977	29.76000000	9.98335292	0.51537725	8.13174402	11.32025895	-0.10412219	3.10826189	3.84621519	9.67303690	4.92684935	11.57279611	-3.87232854	2.30348057	10.11354818	-0.65015108	0.76351554	10.05780781	0.83652141	-2.70425345	-1.33810488	-6.27869730	14.36483263	3.86133116	0.71622987	11.96584382
2978	29.77000000	9.65859814	0.58632764	8.19056899	10.84914852	-0.30143912	3.14563135	2.97418989	8.97543258	5.26183828	11.00057154	-3.71434849	2.89331558	10.00226530	-1.09235775	1.08510135	9.94126785	0.70818172	-2.68033457	-0.99623135	-7.71469319	13.58383848	3.91381726	0.83657995	11.90470007
2979	29.78000000	9.27268216	0.72655699	8.15560564	10.37617618	-0.45242794	3.20921549	2.26590596	8.47860836	4.63046753	10.12612947	-3.48256901	2.92097343	10.19116867	-1.21295952	1.08097362	9.68621093	0.31495567	-2.46408315	-0.77382214	-7.28491531	12.91704323	3.75811788	0.76709486	11.91120693
2980	29.79000000	8.92733932	0.74499935	8.00186596	9.90876926	-0.60445862	3.21196532	3.24598471	6.03157236	3.92033773	9.19279458	-3.73934365	2.56011573	10.24262025	-1.39882509	1.10038092	9.59120375	-0.16591274	-2.11816688	-0.75792143	-5.83857375	12.26089297	3.49727376	0.83881291	11.98487213
2981	29.80000000	8.70516733	0.65099316	7.82346389	9.48882530	-0.73958883	3.17478202	5.21400582	1.87143916	3.45931208	8.49400589	-4.42290716	2.08960493	9.97160644	-1.54517235	1.02044042	9.69594180	-0.61863729	-1.71989835	-0.47826501	-4.07872145	11.66290792	3.99258522	0.64713322	11.88466794
2982	29.81000000	8.56490792	0.60320636	7.65462149	9.22185230	-0.88705139	3.03012833	6.08684588	-0.83880785	3.46779187	7.96269304	-5.20985584	1.73216981	9.91805233	-1.67783256	0.89270680	9.65114189	-1.03922558	-1.34466347	0.22170954	-1.49493065	11.66939807	4.20954227	0.52467724	11.72230638
2983	29.82000000	8.45639007	0.58475159	7.53018641	9.03116387	-1.11415184	2.90353357	5.75408805	-1.93185545	3.91254762	7.60001237	-5.69645020	1.59155496	9.93503168	-1.87394707	1.18176184	9.53779305	-1.44293852	-1.23838099	1.07726973	0.85081343	12.02309165	4.01462100	0.48705328	11.76429965
2984	29.83000000	8.35642645	0.58814548	7.33580887	8.81507375	-1.31424172	2.80669251	4.92175196	-1.53400843	4.49886354	7.35792256	-5.58512379	1.76934798	9.79555255	-1.98394860	1.46600434	9.48577610	-1.75482473	-1.49450310	1.98141217	2.09877802	12.55184373	3.52009044	0.49602876	11.99122462
2985	29.84000000	8.14656407	0.55210056	7.10260264	8.64077240	-1.61654382	2.64156305	4.33371628	-0.43290310	4.59616255	7.18290906	-4.97338204	2.06556772	9.65660542	-2.11731592	1.68747793	9.45492151	-1.87071693	-1.85577533	2.91824190	2.67072967	13.19428288	3.79115319	0.46225313	11.92608896
2986	29.85000000	7.87217491	0.55567904	6.89266243	8.62047725	-1.96981287	2.39460253	4.40903380	0.54620419	4.14678709	7.05532942	-4.22305106	2.47596636	9.59578840	-2.27732429	1.61018904	9.49651826	-1.89981120	-2.10513318	4.05697569	2.92374544	13.72361082	4.16894187	0.24177964	11.70381028
2987	29.86000000	7.70249675	0.55335936	6.81358961	8.61542140	-2.18662575	2.17481867	5.10128906	1.35630044	3.65660393	6.86573352	-3.54357503	3.00877974	9.62473870	-2.63279142	1.61648342	9.32522665	-2.01891075	-2.12862995	5.28422034	3.25653472	14.10044501	4.28458137	0.39856409	11.60226487
2988	29.87000000	7.76359191	0.61984436	6.84102895	8.72664718	-2.25007025	1.97793825	6.51176102	1.98235412	3.25415767	6.60623838	-3.02958877	3.53280833	9.38704478	-2.77007024	1.51390238	9.16960669	-2.13610397	-1.98767373	6.42819864	3.56481219	14.05650114	4.22675429	0.63936694	11.60216027
